# xmcd CD database file
#
# Track frame offsets:
#	150
#	19592
#	38385
#	58437
#	78360
#	97577
#	116250
#	134717
#	152390
#	170645
#	191337
#	211642
#	231720
#	250020
#	267810
#	287957
#	304880
#	323050
#
# Disc length: 4590 seconds
#
# Revision: 0
# Processed by: cddbd v1.5.1PL0 Copyright (c) Steve Scherf et al.
# Submitted via: CDex 1.51
#
DISCID=ec11ec12
DTITLE=吉川晃司 - BEST BEST BEST 1996-2005
DYEAR=1900
DGENRE=J-Pop
TTITLE0=アクセル
TTITLE1=SPEED
TTITLE2=エロス
TTITLE3=RUNAWAY
TTITLE4=Glow In The Dark
TTITLE5=ナイフ
TTITLE6=パンドーラ
TTITLE7=恋のジェリーフィッシュ
TTITLE8=狂った太陽
TTITLE9=愛にそのまま
TTITLE10=FLASHBACK
TTITLE11=Ever Blue
TTITLE12=もしも僕が君ならば
TTITLE13=TOKYO CIRCUS
TTITLE14=Fame and Money
TTITLE15=The Gundogs
TTITLE16=KATANA FISH
TTITLE17=真夜中のストレンジャー 〜20050201 Live Version〜
EXTD=
EXTT0=
EXTT1=
EXTT2=
EXTT3=
EXTT4=
EXTT5=
EXTT6=
EXTT7=
EXTT8=
EXTT9=
EXTT10=
EXTT11=
EXTT12=
EXTT13=
EXTT14=
EXTT15=
EXTT16=
EXTT17=
PLAYORDER=
